<?xml version="1.0" standalone="no"?>
<!DOCTYPE svg PUBLIC "-//W3C//DTD SVG 1.1//EN"
"http://www.w3.org/Graphics/SVG/1.1/DTD/svg11.dtd">

<svg width="554" height="136" view_box="0 0 554 136"
xmlns="http://www.w3.org/2000/svg"
xmlns:link="http://www.w3.org/1999/xlink">\n\n<desc>Généré par Mocodo 2.3.7 le Sun, 30 Jan 2022 08:30:36</desc>

<rect id="frame" x="0" y="0" width="554" height="136" fill="#ffffbf" stroke="none" stroke-width="0"/>

<!-- Association currently in -->
<line x1="272" y1="68" x2="159" y2="68" stroke="#66c2a5" stroke-width="2"/>
<text x="207" y="85.0" fill="#d53e4f" font-family="Verdana" font-size="12">1,1</text>
<line x1="47" y1="68" x2="159" y2="68" stroke="#66c2a5" stroke-width="2"/>
<text x="90" y="85.0" fill="#d53e4f" font-family="Verdana" font-size="12">0,N</text>
<g id="association-currently in">
	<path d="M 187 43 a 14 14 90 0 1 14 14 V 68 h -84 V 57 a 14 14 90 0 1 14 -14" fill="#abdda4" stroke="#abdda4" stroke-width="0"/>
	<path d="M 201 68.0 v 11 a 14 14 90 0 1 -14 14 H 131 a 14 14 90 0 1 -14 -14 V 68.0 H 84" fill="#e6f598" stroke="#e6f598" stroke-width="0"/>
	<rect x="117" y="43" width="84" height="50" fill="none" rx="14" stroke="#66c2a5" stroke-width="2"/>
	<line x1="117" y1="68" x2="201" y2="68" stroke="#66c2a5" stroke-width="1"/>
	<text x="124" y="60.7" fill="#000000" font-family="Verdana" font-size="12">currently in</text>
</g>

<!-- Association belongs to -->
<line x1="272" y1="68" x2="382" y2="68" stroke="#66c2a5" stroke-width="2"/>
<text x="316" y="85.0" fill="#d53e4f" font-family="Verdana" font-size="12">0,1</text>
<line x1="499" y1="68" x2="382" y2="68" stroke="#66c2a5" stroke-width="2"/>
<text x="427" y="85.0" fill="#d53e4f" font-family="Verdana" font-size="12">0,1</text>
<g id="association-belongs to">
	<path d="M 407 43 a 14 14 90 0 1 14 14 V 68 h -78 V 57 a 14 14 90 0 1 14 -14" fill="#abdda4" stroke="#abdda4" stroke-width="0"/>
	<path d="M 421 68.0 v 11 a 14 14 90 0 1 -14 14 H 357 a 14 14 90 0 1 -14 -14 V 68.0 H 78" fill="#e6f598" stroke="#e6f598" stroke-width="0"/>
	<rect x="343" y="43" width="78" height="50" fill="none" rx="14" stroke="#66c2a5" stroke-width="2"/>
	<line x1="343" y1="68" x2="421" y2="68" stroke="#66c2a5" stroke-width="1"/>
	<text x="350" y="60.7" fill="#000000" font-family="Verdana" font-size="12">belongs to</text>
</g>

<!-- Entity STATUS -->
<g id="entity-STATUS">
	<g id="frame-STATUS">
		<rect x="9" y="17" width="76" height="25" fill="#fdae61" stroke="#fdae61" stroke-width="0"/>
		<rect x="9" y="42.0" width="76" height="77" fill="#fee08b" stroke="#fee08b" stroke-width="0"/>
		<rect x="9" y="17" width="76" height="102" fill="none" stroke="#f46d43" stroke-width="2"/>
		<line x1="9" y1="42" x2="85" y2="42" stroke="#f46d43" stroke-width="1"/>
	</g>
	<text x="22" y="34.7" fill="#000000" font-family="Verdana" font-size="12">STATUS</text>
	<text x="14" y="59.7" fill="#000000" font-family="Verdana" font-size="12">id</text>
	<line x1="14" y1="62" x2="26" y2="62" stroke="#000000" stroke-width="1"/>
	<text x="14" y="76.8" fill="#000000" font-family="Verdana" font-size="12">name</text>
	<text x="14" y="93.8" fill="#000000" font-family="Verdana" font-size="12">created at</text>
	<text x="14" y="110.8" fill="#000000" font-family="Verdana" font-size="12">updated at</text>
</g>

<!-- Entity TASKS -->
<g id="entity-TASKS">
	<g id="frame-TASKS">
		<rect x="233" y="9" width="78" height="25" fill="#fdae61" stroke="#fdae61" stroke-width="0"/>
		<rect x="233" y="34.0" width="78" height="93" fill="#fee08b" stroke="#fee08b" stroke-width="0"/>
		<rect x="233" y="9" width="78" height="118" fill="none" stroke="#f46d43" stroke-width="2"/>
		<line x1="233" y1="34" x2="311" y2="34" stroke="#f46d43" stroke-width="1"/>
	</g>
	<text x="251" y="26.7" fill="#000000" font-family="Verdana" font-size="12">TASKS</text>
	<text x="238" y="51.7" fill="#000000" font-family="Verdana" font-size="12">id</text>
	<line x1="238" y1="54" x2="250" y2="54" stroke="#000000" stroke-width="1"/>
	<text x="238" y="68.8" fill="#000000" font-family="Verdana" font-size="12">title</text>
	<text x="238" y="85.8" fill="#000000" font-family="Verdana" font-size="12">completion</text>
	<text x="238" y="102.8" fill="#000000" font-family="Verdana" font-size="12">created at</text>
	<text x="238" y="119.8" fill="#000000" font-family="Verdana" font-size="12">updated at</text>
</g>

<!-- Entity CATEGORIES -->
<g id="entity-CATEGORIES">
	<g id="frame-CATEGORIES">
		<rect x="453" y="9" width="92" height="25" fill="#fdae61" stroke="#fdae61" stroke-width="0"/>
		<rect x="453" y="34.0" width="92" height="93" fill="#fee08b" stroke="#fee08b" stroke-width="0"/>
		<rect x="453" y="9" width="92" height="118" fill="none" stroke="#f46d43" stroke-width="2"/>
		<line x1="453" y1="34" x2="545" y2="34" stroke="#f46d43" stroke-width="1"/>
	</g>
	<text x="458" y="26.7" fill="#000000" font-family="Verdana" font-size="12">CATEGORIES</text>
	<text x="458" y="51.7" fill="#000000" font-family="Verdana" font-size="12">id</text>
	<line x1="458" y1="54" x2="470" y2="54" stroke="#000000" stroke-width="1"/>
	<text x="458" y="68.8" fill="#000000" font-family="Verdana" font-size="12">name</text>
	<text x="458" y="85.8" fill="#000000" font-family="Verdana" font-size="12">status</text>
	<text x="458" y="102.8" fill="#000000" font-family="Verdana" font-size="12">created at</text>
	<text x="458" y="119.8" fill="#000000" font-family="Verdana" font-size="12">updated at</text>
</g>
</svg>